<?xml version="1.0" encoding="UTF-8" standalone="no"?>
<!DOCTYPE svg PUBLIC "-//W3C//DTD SVG 1.1//EN" "http://www.w3.org/Graphics/SVG/1.1/DTD/svg11.dtd">
<svg width="100%" height="100%" viewBox="0 0 5225 5225" version="1.1" xmlns="http://www.w3.org/2000/svg" xmlns:xlink="http://www.w3.org/1999/xlink" xml:space="preserve" xmlns:serif="http://www.serif.com/" style="fill-rule:evenodd;clip-rule:evenodd;stroke-linejoin:round;stroke-miterlimit:2;">
    <g id="Icon" transform="matrix(-5.547401,0,0,5.547401,21096.693796,-8739.316731)">
        <g transform="matrix(-1.364497,-0.10372,-0.087804,1.611836,3117.62935,1650.164739)">
            <path d="M0,0C2.601,7.802 -1.107,15.743 -4,23C-4.434,24.146 -4.869,25.292 -5.316,26.473C-11.411,42.265 -18.941,56.367 -29,70C-29.437,70.595 -29.874,71.19 -30.324,71.804C-44.222,90.561 -61.091,107.726 -79.84,121.648C-83.003,124.002 -86.092,126.434 -89.188,128.875C-97.149,135.039 -105.541,140.549 -114,146C-114.804,146.52 -115.609,147.039 -116.438,147.575C-134.21,158.988 -152.751,169.081 -171.716,178.37C-175.761,180.353 -179.695,182.485 -183.625,184.688C-189.217,187.741 -194.902,189.913 -200.93,191.953C-204.104,192.992 -204.104,192.992 -207.5,194.5C-220.373,200.017 -233.551,203.259 -247.174,206.357C-248.934,206.757 -250.692,207.165 -252.447,207.584C-256.132,208.45 -259.561,209.042 -263.344,209.223C-269.525,209.845 -274.316,213.23 -279.5,216.438C-281.637,217.725 -283.773,219.013 -285.91,220.301C-286.949,220.935 -287.988,221.568 -289.059,222.221C-291.603,223.76 -294.162,225.259 -296.746,226.73C-312.659,235.793 -327.054,246.498 -341.017,258.321C-342.866,259.886 -344.723,261.44 -346.582,262.992C-356.067,270.959 -365.086,279.404 -374,288C-374.753,288.725 -375.507,289.45 -376.283,290.196C-389.743,302.809 -389.743,302.809 -400,318C-399.387,317.889 -398.774,317.779 -398.143,317.665C-395.262,317.147 -392.381,316.636 -389.5,316.125C-388.537,315.951 -387.574,315.777 -386.582,315.598C-372.792,313.164 -359.271,311.565 -345.25,311.562C-344.528,311.56 -343.806,311.558 -343.063,311.555C-318.688,311.555 -293.966,314.65 -270,319C-272.283,321.283 -272.967,321.345 -276.062,321.759C-276.908,321.876 -277.754,321.994 -278.626,322.115C-279.551,322.236 -280.476,322.356 -281.43,322.48C-283.425,322.756 -285.419,323.032 -287.414,323.308C-288.468,323.451 -289.521,323.594 -290.606,323.741C-378.225,333.759 -378.225,333.759 -449.25,380.812C-459.546,395.455 -460.897,412.625 -457.938,429.938C-455.679,441.732 -450.165,452.773 -444,463C-458.631,457.732 -473.437,442.918 -483,431C-483.794,430.015 -484.588,429.03 -485.406,428.016C-497.151,412.751 -497.725,394.82 -495.703,376.272C-491.934,349.339 -479.502,325.105 -461.078,305.289C-458.955,303.006 -458.955,303.006 -457,300.449C-455.065,298.08 -453.076,296.165 -450.75,294.188C-450.044,293.583 -449.337,292.978 -448.609,292.355C-448.078,291.908 -447.547,291.461 -447,291C-447,294.712 -447.97,295.587 -450.188,298.5C-453.955,303.717 -456.584,309.053 -459,315C-459.433,316.031 -459.866,317.062 -460.312,318.125C-461.647,323.706 -461.433,329.445 -460,335C-453.805,328.999 -448.188,322.502 -442.75,315.812C-429.755,299.84 -415.899,284.83 -401.395,270.22C-400.357,269.174 -399.322,268.127 -398.287,267.079C-392.245,260.962 -386.102,255.243 -379.363,249.89C-377.242,248.193 -375.205,246.443 -373.188,244.625C-349.792,224.013 -323.207,206.203 -296.367,190.41C-286.017,184.297 -276.025,177.628 -266,171C-264.568,170.058 -263.136,169.117 -261.703,168.176C-236.184,151.352 -212.403,132.627 -190.812,110.938C-189.962,110.091 -189.112,109.245 -188.236,108.373C-179.907,100.031 -172.407,91.161 -165,82C-164.545,81.439 -164.089,80.878 -163.62,80.3C-153.262,67.526 -143.133,54.611 -134.208,40.783C-132.348,37.917 -130.57,35.274 -128,33C-141,74.053 -166.8,108.092 -196,139C-196.708,139.75 -197.415,140.5 -198.145,141.273C-202.438,145.698 -207.055,149.575 -211.859,153.434C-216.235,156.974 -220.457,160.694 -224.698,164.395C-228.426,167.647 -232.188,170.847 -236,174C-228.284,173.092 -221.275,170.58 -214,168C-212.505,167.478 -212.505,167.478 -210.98,166.945C-194.478,160.892 -178.49,153.022 -162.879,144.968C-161.615,144.317 -160.35,143.67 -159.082,143.028C-149.562,138.199 -140.347,132.919 -131.188,127.438C-130.162,126.824 -129.137,126.211 -128.08,125.58C-120.914,121.253 -113.932,116.692 -107,112C-106.186,111.453 -105.372,110.907 -104.534,110.344C-60.368,80.639 -25.709,46.921 0,0Z" style="fill:rgb(255,106,26);fill-rule:nonzero;"/>
        </g>
        <g transform="matrix(-1.302504,0.491392,0.415987,1.538606,2989.221913,2212.478141)">
            <path d="M0,0C1.664,-0.001 1.664,-0.001 3.362,-0.003C5.698,-0.004 8.033,-0.002 10.368,0.002C13.87,0.008 17.371,0.003 20.873,-0.004C31.542,-0.007 42.193,0.087 52.852,0.578C53.707,0.617 54.562,0.656 55.444,0.696C59.376,0.901 63.129,1.206 66.973,2.133L66.973,3.133C65.962,3.291 65.962,3.291 64.932,3.452C57.275,4.655 49.623,5.886 41.973,7.133C41.207,7.255 40.442,7.378 39.653,7.504C13.605,11.722 -12.959,19.247 -37.027,30.133C-38.433,30.756 -39.84,31.378 -41.246,32C-58.503,39.682 -74.878,48.321 -91.027,58.133C-91.892,58.657 -92.756,59.18 -93.646,59.72C-104.714,66.467 -115.313,73.735 -125.733,81.44C-128.098,83.185 -130.474,84.916 -132.852,86.645C-142.231,93.481 -151.416,100.504 -160.418,107.828C-162.774,109.739 -165.152,111.622 -167.527,113.508C-168.298,114.129 -169.069,114.75 -169.863,115.391C-171.296,116.544 -172.739,117.685 -174.191,118.812C-176.367,120.508 -176.367,120.508 -179.027,123.133L-179.027,127.133C-170.849,130.663 -162.61,133.777 -154.152,136.57C-152.988,136.956 -151.825,137.343 -150.625,137.74C-136.936,142.225 -123.107,146.087 -109.027,149.133L-109.027,150.133C-110.246,150.143 -111.465,150.153 -112.72,150.164C-124.295,150.262 -135.871,150.365 -147.446,150.472C-153.394,150.527 -159.343,150.58 -165.291,150.63C-171.049,150.678 -176.807,150.731 -182.565,150.786C-184.744,150.806 -186.923,150.825 -189.102,150.842C-208.946,151.001 -228.681,151.578 -248.402,153.883C-249.145,153.968 -249.889,154.052 -250.654,154.14C-262.905,155.552 -274.821,157.736 -286.814,160.629C-289.782,161.304 -292.766,161.763 -295.777,162.195C-300.436,162.917 -304.542,164.292 -308.926,166.004C-312.683,167.371 -316.492,168.431 -320.34,169.508C-328.234,171.754 -335.554,174.721 -343.027,178.133C-344.486,178.758 -345.944,179.383 -347.402,180.008C-358.767,185.142 -369.671,190.954 -380.465,197.195C-381.471,197.773 -382.477,198.35 -383.514,198.945C-389.738,202.584 -395.463,206.547 -401.027,211.133C-401.687,210.803 -402.347,210.473 -403.027,210.133C-396.496,203.135 -389.382,197.278 -381.797,191.493C-380.129,190.211 -378.48,188.91 -376.836,187.598C-355.404,170.672 -331.071,158.066 -306.876,145.604C-302.209,143.194 -297.557,140.755 -292.902,138.32C-286.595,135.022 -280.277,131.744 -273.941,128.5C-260.629,121.678 -247.467,114.673 -234.484,107.234C-229.13,104.172 -223.709,101.243 -218.277,98.32C-205.303,91.305 -192.665,83.732 -180.027,76.133C-179.177,75.624 -178.326,75.114 -177.449,74.59C-168.51,69.235 -159.737,63.665 -151.027,57.945C-103.9,27.015 -57.889,-0.114 0,0Z" style="fill:rgb(255,106,26);fill-rule:nonzero;"/>
        </g>
        <g transform="matrix(-1.367319,0,0,1.782695,2981.498853,1853.815869)">
            <path d="M0,0C-2.887,1.523 -5.748,2.655 -8.848,3.672C-56.392,19.551 -101.569,41.127 -146.579,63.013C-159.745,69.409 -173.02,75.435 -186.574,80.965C-188.64,81.846 -190.591,82.805 -192.562,83.875C-195,85 -195,85 -198,84C-171.076,60.877 -142.419,37.432 -108.875,24.875C-107.861,24.49 -107.861,24.49 -106.826,24.097C-95.688,19.867 -84.516,16.067 -73,13C-72.017,12.729 -71.034,12.458 -70.021,12.178C-55.405,8.166 -40.749,5.068 -25.812,2.562C-25.038,2.431 -24.263,2.299 -23.465,2.164C-15.62,0.843 -7.986,-0.371 0,0Z" style="fill:rgb(255,106,26);fill-rule:nonzero;"/>
        </g>
        <g transform="matrix(-0.890554,0.287946,0.26592,1.147619,3035.882607,2004.950253)">
            <path d="M0,0C-2.887,1.523 -5.748,2.655 -8.848,3.672C-56.392,19.551 -101.569,41.127 -146.579,63.013C-159.745,69.409 -173.02,75.435 -186.574,80.965C-188.64,81.846 -190.591,82.805 -192.562,83.875C-195,85 -195,85 -198,84C-171.076,60.877 -142.419,37.432 -108.875,24.875C-107.861,24.49 -107.861,24.49 -106.826,24.097C-95.688,19.867 -84.516,16.067 -73,13C-72.017,12.729 -71.034,12.458 -70.021,12.178C-55.405,8.166 -40.749,5.068 -25.812,2.562C-25.038,2.431 -24.263,2.299 -23.465,2.164C-15.62,0.843 -7.986,-0.371 0,0Z" style="fill:rgb(255,106,26);fill-rule:nonzero;"/>
        </g>
        <g transform="matrix(-0.84086,0,0,1.61517,3438.546844,2057.686559)">
            <path d="M0,0C-2.079,2.079 -3.477,2.762 -6.156,3.883C-7.005,4.241 -7.854,4.6 -8.728,4.969C-10.1,5.541 -10.1,5.541 -11.5,6.125C-13.42,6.937 -15.339,7.749 -17.258,8.562C-18.224,8.971 -19.189,9.38 -20.185,9.801C-29.745,13.873 -39.221,18.14 -48.625,22.562C-53.866,25.027 -59.135,27.421 -64.438,29.75C-65.076,30.032 -65.714,30.313 -66.372,30.604C-73.125,33.551 -79.883,36.059 -87,38C-90.905,39.089 -94.728,40.2 -98.5,41.688C-101.712,42.892 -104.607,43.576 -108,44C-103.95,38.973 -99.643,34.681 -94.625,30.625C-93.934,30.066 -93.243,29.506 -92.531,28.93C-85.491,23.377 -77.99,19.027 -70,15C-69.024,14.499 -68.048,13.997 -67.043,13.48C-59.96,10.048 -52.596,7.989 -45,6C-44.069,5.733 -43.139,5.466 -42.18,5.191C-28.662,1.475 -14.035,-0.785 0,0Z" style="fill:rgb(255,106,26);fill-rule:nonzero;"/>
        </g>
    </g>
</svg>
